Coordinates
version=1
nRows=15
nColumns=23
inDegrees=yes

Units are S.I. units (second, meters, Newtons, ...)
If the header above contains a line with 'inDegrees', this indicates whether rotational values are in degrees (yes) or radians (no).

endheader
time	pelvis_tilt	pelvis_list	pelvis_rotation	pelvis_tx	pelvis_ty	pelvis_tz	hip_flexion_r	hip_adduction_r	hip_rotation_r	knee_angle_r	knee_angle_r_beta	ankle_angle_r	subtalar_angle_r	mtp_angle_r	hip_flexion_l	hip_adduction_l	hip_rotation_l	knee_angle_l	knee_angle_l_beta	ankle_angle_l	subtalar_angle_l	mtp_angle_l
     22.50000000	     -7.90872575	      2.48254238	      1.92413268	      2.14244758	      1.05822110	      1.02564515	     -4.89409180	     -3.10607911	    -13.52515823	     24.76640226	      0.43225526	     -2.70822896	      4.17074864	      0.00000000	     36.60853678	      1.20809292	     -5.77836358	     61.08396639	      1.06611633	      6.76807388	     -8.39782780	      0.00000000
     22.50666667	     -8.35281501	      2.86301520	      2.07691841	      2.14400181	      1.06204981	      1.02525901	     -5.84215825	     -3.49242572	    -13.45748834	     23.76454552	      0.41476956	     -6.33604456	      3.88598947	      0.00000000	     36.88942402	      1.79735662	     -6.55508733	     57.17947934	      0.99797018	      7.05149908	     -7.55278415	      0.00000000
     22.51333333	     -8.88213878	      3.14510937	      2.20494722	      2.14550232	      1.06561250	      1.02485555	     -6.58126763	     -3.75445477	    -13.12545014	     22.89651041	      0.39961949	     -9.87228012	      3.23040498	      0.00000000	     37.16010480	      2.27598143	     -7.35435922	     53.15355896	      0.92770461	      7.37557540	     -6.30448577	      0.00000000
     22.52000000	     -9.59826639	      3.43904007	      2.36066082	      2.14684330	      1.06859842	      1.02432326	     -6.84825381	     -4.22558698	    -13.29789720	     22.59579918	      0.39437109	    -13.09794440	      3.16466957	      0.00000000	     37.55027102	      2.83630695	     -8.11021680	     49.02239956	      0.85560228	      7.60475664	     -4.95618761	      0.00000000
     22.52666667	     -9.94697076	      3.67427280	      2.48677591	      2.14835684	      1.07185167	      1.02386001	     -7.54238381	     -4.46160225	    -12.89432161	     22.13453192	      0.38632046	    -16.21781783	      2.27709708	      0.00000000	     37.42766019	      3.27136452	     -9.01191850	     44.82302249	      0.78230932	      8.00739459	     -2.87271582	      0.00000000
     22.53333333	    -10.52148711	      3.82575419	      2.64179930	      2.14964929	      1.07434297	      1.02327148	     -7.74899894	     -4.73626087	    -12.74945328	     22.17203061	      0.38697494	    -18.97722459	      1.51063505	      0.00000000	     37.52068493	      3.70686735	     -9.82716812	     40.65342786	      0.70953617	      8.36649792	     -0.66475404	      0.00000000
     22.54000000	    -11.07881254	      3.91856331	      2.81460381	      2.15084947	      1.07638312	      1.02263664	     -7.82787908	     -4.98470524	    -12.69164614	     22.51354571	      0.39293550	    -21.32283534	      0.69577732	      0.00000000	     37.56414005	      4.13845247	    -10.59183192	     36.55430222	      0.63799293	      8.76486814	      1.70514705	      0.00000000
     22.54666667	    -11.69980214	      3.98918489	      3.04880635	      2.15190344	      1.07779101	      1.02184145	     -7.66141423	     -5.29350286	    -12.90017350	     23.26615844	      0.40607107	    -23.13933776	     -0.04481796	      0.00000000	     37.65058952	      4.71125922	    -11.03355897	     32.52179114	      0.56761233	      9.08853253	      3.70516845	      0.00000000
     22.55333333	    -12.16441410	      4.03857831	      3.25566475	      2.15288297	      1.07886982	      1.02110615	     -7.55149626	     -5.56373880	    -13.01500257	     24.24685372	      0.42318743	    -24.48145899	     -1.00978230	      0.00000000	     37.56698726	      5.26696053	    -11.41874127	     28.68031308	      0.50056589	      9.47961085	      5.79254428	      0.00000000
     22.56000000	    -12.59569480	      4.02229306	      3.47586703	      2.15379426	      1.07939268	      1.02030958	     -7.37391971	     -5.77947667	    -13.15471032	     25.46277209	      0.44440921	    -25.33409771	     -2.05122053	      0.00000000	     37.47294038	      5.81564510	    -11.55221763	     25.09575305	      0.43800352	      9.95149405	      7.66521057	      0.00000000
     22.56666667	    -12.98190082	      3.91131377	      3.75233941	      2.15454815	      1.07941935	      1.01949558	     -7.14305951	     -5.88541956	    -13.32354723	     26.88871421	      0.46929659	    -25.74675232	     -3.07982040	      0.00000000	     37.38679193	      6.34151977	    -11.31113136	     21.86103193	      0.38154698	     10.56520490	      9.26212552	      0.00000000
     22.57333333	    -13.11848337	      4.09376299	      3.91954140	      2.15526256	      1.07927510	      1.01883923	     -7.04417176	     -6.34425004	    -13.47395281	     28.63685346	      0.49980738	    -25.82557639	     -4.47808508	      0.00000000	     36.87204553	      7.15734789	    -10.72279322	     18.53583405	      0.32351133	     10.57637085	      9.65838927	      0.00000000
     22.58000000	    -13.25244674	      4.15845496	      4.18542582	      2.15579999	      1.07861687	      1.01814359	     -6.86534906	     -6.67816139	    -13.71620848	     30.54115696	      0.53304375	    -25.63080481	     -5.73047006	      0.00000000	     36.33656317	      7.96145275	     -9.31331974	     15.47186338	      0.27003496	     10.58947549	      9.09643519	      0.00000000
     22.58666667	    -13.26311590	      4.16643828	      4.39492814	      2.15624892	      1.07751721	      1.01760910	     -6.70331790	     -6.94759239	    -13.85143811	     32.60937780	      0.56914101	    -25.29513193	     -7.00795401	      0.00000000	     35.87681121	      8.44096203	     -8.64182790	     13.19722389	      0.23033501	     10.82271020	      9.42576033	      0.00000000
     22.59333333	    -13.07830370	      4.23944260	      4.68703658	      2.15660535	      1.07625504	      1.01711747	     -6.68805799	     -7.25587566	    -14.03785714	     34.79320352	      0.60725596	    -24.92762460	     -8.27116194	      0.00000000	     35.01783410	      9.12661628	     -6.74554683	     10.87519332	      0.18980793	     10.58770016	      7.88269077	      0.00000000
